# xmcd
#
# Track frame offsets: 
#        150
#        10167
#        22501
#        34219
#        45575
#        55935
#        69742
#        84366
#        96127
#        108538
#        120172
#        133073
#        144779
#        159751
#        172470
#        183645
#        200892
#        216292
#        229386
#        242195
#        255427
#        264864
#        274336
#
# Disc length: 3822 seconds
#
# Revision: 0
# Processed by: cddbd v1.5.2PL0 Copyright (c) Steve Scherf et al.
# Submitted via: ExactAudioCopyFreeDBPlugin 1.0
#
DISCID=430eec17
DTITLE=George and Greer - George Jackson and Dan Greer at Goldwax
DYEAR=2015
DGENRE=Soul
TTITLE0=You Didn’t Know it But You Had Me
TTITLE1=To Me it’s Storming
TTITLE2=Good Times
TTITLE3=Do the March
TTITLE4=Coming Back to You Baby
TTITLE5=Love Attack
TTITLE6=Don’t Wake Me Up
TTITLE7=Nothing Can Touch My Love I Have for You
TTITLE8=That’s Why I Love You
TTITLE9=Come On and Make Up My Mind
TTITLE10=I’m Going to Straighten Up and Do Right
TTITLE11=It’s So Nice
TTITLE12=A Road to Nowhere
TTITLE13=I Don’t Want to Be Hurt
TTITLE14=Come Back and Help Me Save Our Romance
TTITLE15=I Can See Sadness Ahead of Me
TTITLE16=Fascination
TTITLE17=If I Thought I Could Ride My Troubles Away
TTITLE18=I’m Still in Love with You
TTITLE19=I Don’t Wanna Take a Chance
TTITLE20=Will You Be Around
TTITLE21=What Do You Do?
TTITLE22=To Me it’s Storming (first version)
EXTD=
EXTT0=
EXTT1=
EXTT2=
EXTT3=
EXTT4=
EXTT5=
EXTT6=
EXTT7=
EXTT8=
EXTT9=
EXTT10=
EXTT11=
EXTT12=
EXTT13=
EXTT14=
EXTT15=
EXTT16=
EXTT17=
EXTT18=
EXTT19=
EXTT20=
EXTT21=
EXTT22=
PLAYORDER=
